# xmcd CD database file
#
# Track frame offsets:
#	150
#	28907
#	56162
#	81151
#	103837
#	130905
#	151423
#	172411
#	202011
#	219167
#	241581
#	268927
#
# Disc length: 3922 seconds
#
# Revision: 2
# Processed by: cddbd v1.5.2PL0 Copyright (c) Steve Scherf et al.
# Submitted via: CDex 1.51
#
DISCID=b10f500c
DTITLE=Emmanuel Bex ~ featuring ~ Mônica Passos - OrganSong
DYEAR=2006
DGENRE=Jazz
TTITLE0=Tarde
TTITLE1=La vie est infinie
TTITLE2=Ni hier ni demain
TTITLE3=À une passante
TTITLE4=Lettre à Vonette
TTITLE5=Open game
TTITLE6=Jávi esse filme
TTITLE7=Encontro
TTITLE8=Seul sans toi
TTITLE9=Berceuse
TTITLE10=As time goes by
TTITLE11=Small ads
EXTD=YEAR: 2006
EXTT0=
EXTT1=
EXTT2=
EXTT3=
EXTT4=
EXTT5=
EXTT6=
EXTT7=
EXTT8=
EXTT9=
EXTT10=
EXTT11=
PLAYORDER=
